<svg xmlns="http://www.w3.org/2000/svg" width="21.504" height="24.5" viewBox="0 0 21.504 24.5">
  <g id="Group_323" data-name="Group 323" transform="translate(-1063.246 -410.25)">
    <path id="Vector" d="M15.559.9a3.082,3.082,0,0,1,4.359,0l2.18,2.18a3.082,3.082,0,0,1,0,4.359L11.08,18.458a3.082,3.082,0,0,1-1.744.872l-4.577.654A1.541,1.541,0,0,1,3.016,18.24l.654-4.577a3.082,3.082,0,0,1,.872-1.744Z" transform="translate(1061 411)" fill="none" stroke="#838282" stroke-linecap="round" stroke-width="1.5"/>
    <path id="Vector-2" data-name="Vector" d="M0,22.312H20m-8.017-20A6.938,6.938,0,0,0,13.8,6.479a5.313,5.313,0,0,0,3.633,2.084" transform="translate(1064 411.688)" fill="none" stroke="#838282" stroke-linecap="round" stroke-width="1.5"/>
  </g>
</svg>
