<svg xmlns="http://www.w3.org/2000/svg" width="24" height="24" viewBox="0 0 24 24">
  <path id="_290141_bag_case_handbag_purse_shopping_icon" data-name="290141_bag_case_handbag_purse_shopping_icon" d="M22,25H3a2.047,2.047,0,0,1-2-2.092L3,10.363a2.281,2.281,0,0,1,.782-1.6,2.083,2.083,0,0,1,1.656-.488H6.765C7.519,4.644,9.8,2,12.5,2s4.982,2.644,5.736,6.272h1.326a2.083,2.083,0,0,1,1.656.489,2.281,2.281,0,0,1,.782,1.6l2,12.545A2.047,2.047,0,0,1,22,25ZM12.5,3.046c-2.177,0-4.024,2.184-4.709,5.226H17.21C16.522,5.23,14.676,3.046,12.5,3.046ZM21,10.363a1.149,1.149,0,0,0-.381-.785,1.051,1.051,0,0,0-.8-.261H18.4a13.074,13.074,0,0,1,.1,1.568.5.5,0,1,1-1,0,12.15,12.15,0,0,0-.1-1.568H7.6a12.24,12.24,0,0,0-.1,1.568.5.5,0,1,1-1,0,13.181,13.181,0,0,1,.1-1.568H5.185a1.051,1.051,0,0,0-.8.262A1.149,1.149,0,0,0,4,10.363L2,22.908a1.024,1.024,0,0,0,1,1.046H22a1.024,1.024,0,0,0,1-1.046Z" transform="translate(-0.5 -1.5)" fill="none" stroke="#262626" stroke-width="1" fill-rule="evenodd"/>
</svg>
