<svg width="898" height="898" viewBox="0 0 898 898" fill="none" xmlns="http://www.w3.org/2000/svg">
<rect width="897.901" height="897.901" rx="448.95" fill="white"/>
<path d="M377.217 397.966L456.612 556.095H478.225C483.959 542.863 489.179 530.88 493.884 520.147C498.736 509.414 503.147 499.563 507.116 490.594C511.233 481.626 515.129 473.318 518.805 465.673C522.481 458.027 526.083 450.75 529.612 443.839C533.14 436.782 536.743 429.945 540.418 423.329C544.241 416.565 548.358 409.582 552.769 402.377C553.357 410.464 554.092 419.947 554.974 430.827C555.856 441.707 556.812 453.323 557.841 465.673C559.017 477.876 560.267 490.447 561.59 503.386C562.914 516.177 564.237 528.675 565.56 540.878C567.03 552.934 568.501 564.255 569.971 574.842C571.441 585.428 572.838 594.47 574.161 601.968C574.749 605.35 575.558 609.173 576.587 613.437C577.763 617.553 579.895 621.523 582.983 625.346C586.218 629.022 590.775 632.183 596.657 634.829C602.538 637.329 610.551 638.578 620.696 638.578C627.9 638.578 634.59 637.843 640.765 636.373C647.087 634.903 652.821 633.065 657.967 630.859C663.26 628.654 667.892 626.375 671.862 624.023C675.978 621.523 679.36 619.318 682.007 617.406L678.478 609.246C675.684 610.716 672.523 612.187 668.995 613.657C665.466 614.98 661.717 615.642 657.747 615.642C653.924 615.642 651.278 614.392 649.807 611.893C648.337 609.246 647.161 605.791 646.279 601.527C645.691 598.734 644.882 593.588 643.853 586.089C642.824 578.444 641.721 569.181 640.545 558.301C639.368 547.274 638.045 534.997 636.575 521.47C635.252 507.944 633.855 493.829 632.385 479.126C630.914 464.423 629.444 449.5 627.974 434.356C626.65 419.212 625.327 404.583 624.004 390.468C622.828 376.206 621.725 362.9 620.696 350.55C619.667 338.052 618.858 327.172 618.27 317.909C618.27 317.909 615.953 282.55 615.953 266.55C615.953 250.55 604.67 267.332 595.554 279.976C586.438 292.621 576.587 307.911 566.001 325.849C555.415 343.786 543.873 364.591 531.376 388.263C519.026 411.787 505.278 438.473 490.135 468.319L431.911 350.109C428.971 344.08 425.736 338.346 422.207 332.906C418.679 327.466 414.194 322.761 408.754 318.792C403.314 314.675 396.551 311.44 388.464 309.088C380.378 306.588 370.306 305.338 358.25 305.338C343.253 305.338 328.477 307.25 313.921 311.073C299.512 314.748 286.574 320.409 275.105 328.054C263.637 335.7 254.374 345.257 247.317 356.725C240.26 368.046 236.731 381.352 236.731 396.643C236.731 403.112 237.76 409.214 239.819 414.948C241.877 420.682 244.891 425.681 248.861 429.945C252.831 434.209 257.609 437.591 263.196 440.09C268.93 442.442 275.326 443.619 282.383 443.619C286.941 443.619 291.499 442.957 296.057 441.634C300.762 440.164 304.879 438.032 308.407 435.238C312.083 432.298 315.024 428.695 317.229 424.432C319.582 420.168 320.758 415.095 320.758 409.214C320.758 405.097 320.17 401.642 318.993 398.849C317.817 395.908 316.347 393.556 314.583 391.791C312.965 390.027 311.127 388.777 309.069 388.042C307.158 387.16 305.32 386.719 303.555 386.719C301.35 386.719 299.365 387.38 297.601 388.704C295.983 389.88 294.219 391.203 292.308 392.673C290.396 393.997 288.264 395.32 285.912 396.643C283.56 397.819 280.545 398.407 276.87 398.407C276.135 398.407 274.885 398.26 273.121 397.966C271.503 397.525 269.812 396.643 268.048 395.32C266.431 393.85 264.96 391.718 263.637 388.924C262.461 386.131 261.873 382.381 261.873 377.676C261.873 372.236 262.976 367.164 265.181 362.459C267.533 357.754 270.474 353.49 274.003 349.668C277.678 345.698 281.795 342.243 286.353 339.302C291.058 336.214 295.689 333.641 300.247 331.583C304.952 329.525 309.437 327.981 313.7 326.952C318.111 325.775 321.787 325.187 324.728 325.187C328.256 325.187 331.27 325.481 333.77 326.069C336.269 326.658 338.548 327.834 340.607 329.598C342.665 331.215 344.65 333.641 346.561 336.876C348.473 339.964 350.678 344.08 353.178 349.226C353.031 354.372 352.81 360.474 352.516 367.531C352.369 374.589 352.075 382.528 351.634 391.35C351.34 400.172 350.899 409.729 350.31 420.021C349.722 430.166 349.061 440.899 348.326 452.22C347.737 460.012 347.149 467.437 346.561 474.495C346.12 481.405 345.606 488.242 345.017 495.005C344.429 501.768 343.841 508.605 343.253 515.516C342.665 522.279 342.077 529.336 341.489 536.688C340.166 549.92 338.181 561.756 335.534 572.195C332.888 582.634 329.065 591.529 324.066 598.881C319.067 606.232 312.671 611.893 304.879 615.862C297.233 619.685 287.75 621.597 276.429 621.597C270.695 621.597 265.916 620.788 262.093 619.171C258.271 617.553 254.963 615.568 252.169 613.216C249.522 610.716 247.317 608.07 245.553 605.276C243.935 602.483 242.465 599.91 241.142 597.557C239.819 595.058 238.495 593 237.172 591.382C235.996 589.765 234.599 588.956 232.982 588.956C230.335 588.956 227.983 589.691 225.924 591.162C223.719 592.485 221.881 594.323 220.411 596.675C218.941 598.881 217.838 601.38 217.103 604.174C216.368 606.82 216 609.467 216 612.113C216 615.642 217.617 618.95 220.852 622.038C223.94 624.978 228.13 627.551 233.423 629.757C238.716 631.962 244.818 633.726 251.728 635.05C258.638 636.226 265.843 636.814 273.341 636.814C290.396 636.814 304.585 634.388 315.906 629.536C327.374 624.684 336.637 617.994 343.694 609.467C350.899 600.792 356.339 590.574 360.014 578.811C363.837 567.049 366.631 554.331 368.395 540.657C370.159 526.837 371.336 512.354 371.924 497.211C372.659 481.92 373.467 466.555 374.35 451.117L377.217 397.966Z" fill="#A17A35"/>
</svg>
