<svg width="898" height="898" viewBox="0 0 898 898" fill="none" xmlns="http://www.w3.org/2000/svg">
<rect width="897.901" height="897.901" rx="448.95" fill="white"/>
<path d="M189.58 659.96C188.94 658.12 188.14 656.241 187.181 654.322C186.301 652.323 185.102 649.724 183.582 646.525L161.991 601.424H161.751L159.592 647.005C159.512 649.724 160.152 651.923 161.511 653.602C162.871 655.202 165.35 656.081 168.948 656.241V659H146.758V656.241C149.077 656.081 150.716 655.202 151.676 653.602C152.715 651.923 153.275 649.724 153.355 647.005L155.874 591.228C156.034 588.429 155.834 586.43 155.274 585.231C154.794 584.031 153.915 583.272 152.635 582.952C151.356 582.552 149.636 582.232 147.477 581.992V579.233H173.147C173.786 581.312 174.506 583.272 175.306 585.111C176.185 586.95 177.145 588.989 178.184 591.228L198.816 634.41H199.056L218.248 591.228C220.087 587.15 221.486 583.152 222.446 579.233H247.875V581.992C246.356 582.072 245.077 582.312 244.037 582.712C242.997 583.112 242.238 583.951 241.758 585.231C241.358 586.43 241.198 588.429 241.278 591.228L243.797 647.005C243.957 649.564 244.277 651.483 244.757 652.763C245.317 654.042 246.196 654.922 247.396 655.401C248.595 655.801 250.194 656.081 252.194 656.241V659H218.008V656.241C220.567 656.081 222.326 655.481 223.286 654.442C224.325 653.402 224.765 650.923 224.605 647.005L222.566 597.945H222.326L200.615 646.525C199.096 649.884 197.976 652.523 197.257 654.442C196.617 656.281 196.057 658.12 195.577 659.96H189.58ZM273.66 660.799C269.262 660.799 265.983 659.48 263.824 656.841C261.745 654.202 260.705 651.163 260.705 647.725C260.705 642.447 263.104 638.169 267.902 634.89C272.78 631.611 280.297 628.613 290.453 625.894V619.536C290.453 615.778 289.653 613.099 288.054 611.5C286.535 609.82 284.376 608.981 281.577 608.981C277.738 608.981 274.54 610.42 271.981 613.299C269.502 616.178 267.782 620.056 266.823 624.934H264.064V607.661C266.783 606.302 270.301 605.022 274.62 603.823C279.018 602.623 283.776 602.024 288.894 602.024C302.728 602.024 309.645 607.382 309.645 618.097V644.246C309.645 646.085 309.885 647.525 310.365 648.564C310.845 649.524 311.804 650.004 313.244 650.004C314.043 650.004 314.923 649.844 315.882 649.524C316.922 649.124 318.002 648.404 319.121 647.365L321.04 649.284C319.281 652.963 316.962 655.721 314.083 657.561C311.204 659.32 307.926 660.2 304.247 660.2C300.329 660.2 297.29 659.44 295.131 657.92C293.052 656.321 291.573 654.042 290.693 651.083H290.453C288.614 654.282 286.175 656.721 283.136 658.4C280.097 660 276.939 660.799 273.66 660.799ZM283.016 650.004C284.615 650.004 286.015 649.644 287.214 648.924C288.494 648.125 289.573 647.245 290.453 646.285V630.692C286.775 631.731 283.976 633.091 282.057 634.77C280.217 636.449 278.978 638.129 278.338 639.808C277.778 641.487 277.498 642.887 277.498 644.006C277.498 645.686 277.978 647.125 278.938 648.324C279.897 649.444 281.257 650.004 283.016 650.004ZM343.852 687.188C340.414 687.188 337.095 686.868 333.896 686.229C330.778 685.669 328.219 684.549 326.22 682.87C324.221 681.271 323.221 678.952 323.221 675.913C323.221 673.034 324.141 670.435 325.98 668.116C327.899 665.877 330.258 664.198 333.057 663.078L335.816 663.558C335.096 665.157 334.576 666.677 334.256 668.116C333.936 669.556 333.777 670.835 333.777 671.955C333.777 675.073 335.016 677.472 337.495 679.152C340.054 680.911 343.532 681.791 347.931 681.791C352.009 681.791 355.368 681.151 358.006 679.871C360.645 678.592 362.605 676.993 363.884 675.073C365.163 673.234 365.803 671.475 365.803 669.796C365.803 668.516 365.323 667.317 364.364 666.197C363.484 665.077 361.645 664.318 358.846 663.918L334.496 660.2C331.937 659.8 330.098 658.8 328.979 657.201C327.939 655.601 327.419 653.762 327.419 651.683C327.419 648.884 328.259 646.165 329.938 643.526C331.617 640.808 333.976 638.489 337.015 636.569C333.417 635.13 330.498 633.091 328.259 630.452C326.1 627.733 325.02 624.414 325.02 620.496C325.02 616.578 326.14 613.219 328.379 610.42C330.618 607.541 333.617 605.342 337.375 603.823C341.213 602.304 345.572 601.544 350.45 601.544C356.447 601.544 361.565 602.663 365.803 604.903C368.362 604.583 370.441 603.423 372.041 601.424C373.72 599.345 374.56 596.346 374.56 592.428H377.318C379.318 593.467 380.677 594.707 381.397 596.146C382.116 597.506 382.476 598.865 382.476 600.225C382.476 603.023 381.397 605.182 379.238 606.702C377.078 608.141 374.24 608.781 370.721 608.621C372.081 610.06 373.12 611.74 373.84 613.659C374.639 615.498 375.039 617.537 375.039 619.776C375.039 623.695 373.92 627.093 371.681 629.972C369.442 632.771 366.403 634.93 362.565 636.449C358.726 637.969 354.408 638.728 349.61 638.728C346.651 638.728 343.852 638.449 341.213 637.889C340.014 638.928 339.414 640.088 339.414 641.367C339.414 641.927 339.574 642.487 339.894 643.047C340.214 643.526 340.934 643.846 342.053 644.006L370.241 648.324C375.199 649.124 378.598 650.723 380.437 653.122C382.276 655.441 383.196 658 383.196 660.799C383.196 663.518 382.436 666.397 380.917 669.436C379.398 672.554 377.038 675.433 373.84 678.072C370.641 680.791 366.563 682.99 361.605 684.669C356.647 686.349 350.729 687.188 343.852 687.188ZM350.57 634.17C353.128 634.17 355.048 632.971 356.327 630.572C357.607 628.173 358.246 624.974 358.246 620.976C358.246 616.258 357.407 612.619 355.727 610.06C354.128 607.421 352.049 606.102 349.49 606.102C347.011 606.102 345.092 607.302 343.732 609.701C342.453 612.1 341.813 615.298 341.813 619.297C341.813 623.935 342.653 627.573 344.332 630.212C346.011 632.851 348.091 634.17 350.57 634.17ZM401.693 660.799C397.294 660.799 394.016 659.48 391.857 656.841C389.778 654.202 388.738 651.163 388.738 647.725C388.738 642.447 391.137 638.169 395.935 634.89C400.813 631.611 408.33 628.613 418.486 625.894V619.536C418.486 615.778 417.686 613.099 416.087 611.5C414.567 609.82 412.408 608.981 409.609 608.981C405.771 608.981 402.572 610.42 400.013 613.299C397.534 616.178 395.815 620.056 394.855 624.934H392.097V607.661C394.815 606.302 398.334 605.022 402.652 603.823C407.05 602.623 411.808 602.024 416.926 602.024C430.76 602.024 437.678 607.382 437.678 618.097V644.246C437.678 646.085 437.917 647.525 438.397 648.564C438.877 649.524 439.837 650.004 441.276 650.004C442.076 650.004 442.955 649.844 443.915 649.524C444.955 649.124 446.034 648.404 447.154 647.365L449.073 649.284C447.314 652.963 444.995 655.721 442.116 657.561C439.237 659.32 435.958 660.2 432.28 660.2C428.361 660.2 425.323 659.44 423.164 657.92C421.084 656.321 419.605 654.042 418.725 651.083H418.486C416.646 654.282 414.207 656.721 411.169 658.4C408.13 660 404.971 660.799 401.693 660.799ZM411.049 650.004C412.648 650.004 414.047 649.644 415.247 648.924C416.526 648.125 417.606 647.245 418.486 646.285V630.692C414.807 631.731 412.008 633.091 410.089 634.77C408.25 636.449 407.01 638.129 406.371 639.808C405.811 641.487 405.531 642.887 405.531 644.006C405.531 645.686 406.011 647.125 406.97 648.324C407.93 649.444 409.289 650.004 411.049 650.004ZM472.485 660.799C466.407 660.799 461.489 659.72 457.731 657.561C454.052 655.402 452.213 652.363 452.213 648.444C452.213 646.925 452.533 645.326 453.173 643.646C453.812 641.887 454.972 640.208 456.651 638.609H459.41C459.81 641.727 460.45 644.606 461.329 647.245C462.289 649.804 463.688 651.843 465.528 653.362C467.447 654.882 470.006 655.641 473.204 655.641C475.763 655.641 477.882 655.082 479.562 653.962C481.321 652.763 482.201 651.003 482.201 648.684C482.201 646.525 481.481 644.726 480.041 643.287C478.682 641.847 476.923 640.568 474.764 639.448C472.605 638.249 470.286 637.089 467.807 635.97C465.328 634.85 463.009 633.571 460.849 632.131C458.69 630.612 456.891 628.813 455.452 626.733C454.092 624.654 453.413 622.055 453.413 618.937C453.413 613.739 455.492 609.621 459.65 606.582C463.888 603.543 469.606 602.024 476.803 602.024C479.522 602.024 482.48 602.264 485.679 602.743C488.958 603.223 491.597 604.063 493.596 605.262V621.216H490.957C490.397 617.137 488.878 613.779 486.399 611.14C483.92 608.501 480.721 607.182 476.803 607.182C474.164 607.182 472.205 607.781 470.925 608.981C469.646 610.1 469.006 611.42 469.006 612.939C469.006 614.698 469.686 616.218 471.045 617.497C472.485 618.697 474.284 619.856 476.443 620.976C478.602 622.015 480.881 623.135 483.28 624.334C485.759 625.534 488.078 626.933 490.237 628.533C492.396 630.132 494.156 632.091 495.515 634.41C496.954 636.649 497.674 639.408 497.674 642.687C497.674 646.605 496.595 649.924 494.435 652.643C492.276 655.282 489.278 657.321 485.439 658.76C481.681 660.12 477.363 660.799 472.485 660.799ZM525.674 660.2C525.034 658.12 524.435 656.321 523.875 654.802C523.315 653.202 522.595 651.443 521.716 649.524L507.202 615.818C506.082 613.099 505.163 611.14 504.443 609.94C503.723 608.661 503.043 607.821 502.404 607.422C501.764 606.942 500.884 606.662 499.765 606.582V603.823H528.673V606.582C527.073 606.662 526.034 607.182 525.554 608.141C525.154 609.101 525.074 610.26 525.314 611.62C525.634 612.979 526.074 614.379 526.634 615.818L535.27 636.209H535.51L543.307 618.337L542.227 615.818C541.188 613.099 540.308 611.14 539.588 609.94C538.869 608.661 538.229 607.821 537.669 607.422C537.189 606.942 536.589 606.662 535.87 606.582V603.823H564.298V606.582C562.299 606.662 560.979 607.182 560.34 608.141C559.78 609.101 559.62 610.26 559.86 611.62C560.1 612.979 560.499 614.379 561.059 615.818L569.216 636.209H569.456L576.893 615.818C577.452 614.379 577.732 612.979 577.732 611.62C577.732 610.26 577.253 609.101 576.293 608.141C575.413 607.182 573.814 606.662 571.495 606.582V603.823H591.047V606.582C589.208 606.742 587.648 607.781 586.369 609.701C585.089 611.62 584.01 613.659 583.13 615.818L570.175 649.524C569.376 651.683 568.736 653.482 568.256 654.922C567.856 656.361 567.417 658.12 566.937 660.2H560.1C559.54 658.12 558.9 656.321 558.18 654.802C557.461 653.202 556.701 651.443 555.901 649.524L546.305 625.894L535.99 649.524C535.03 651.683 534.31 653.482 533.831 654.922C533.431 656.361 532.991 658.12 532.511 660.2H525.674ZM607.857 660.799C603.458 660.799 600.18 659.48 598.021 656.841C595.942 654.202 594.902 651.163 594.902 647.725C594.902 642.447 597.301 638.169 602.099 634.89C606.977 631.611 614.494 628.613 624.65 625.894V619.536C624.65 615.778 623.85 613.099 622.251 611.5C620.731 609.82 618.572 608.981 615.773 608.981C611.935 608.981 608.736 610.42 606.177 613.299C603.698 616.178 601.979 620.056 601.019 624.934H598.261V607.661C600.979 606.302 604.498 605.022 608.816 603.823C613.214 602.623 617.972 602.024 623.09 602.024C636.925 602.024 643.842 607.382 643.842 618.097V644.246C643.842 646.085 644.082 647.525 644.561 648.564C645.041 649.524 646.001 650.004 647.44 650.004C648.24 650.004 649.119 649.844 650.079 649.524C651.119 649.124 652.198 648.404 653.318 647.365L655.237 649.284C653.478 652.963 651.159 655.721 648.28 657.561C645.401 659.32 642.122 660.2 638.444 660.2C634.526 660.2 631.487 659.44 629.328 657.92C627.249 656.321 625.769 654.042 624.89 651.083H624.65C622.81 654.282 620.371 656.721 617.333 658.4C614.294 660 611.135 660.799 607.857 660.799ZM617.213 650.004C618.812 650.004 620.211 649.644 621.411 648.924C622.69 648.125 623.77 647.245 624.65 646.285V630.692C620.971 631.731 618.172 633.091 616.253 634.77C614.414 636.449 613.174 638.129 612.535 639.808C611.975 641.487 611.695 642.887 611.695 644.006C611.695 645.686 612.175 647.125 613.134 648.324C614.094 649.444 615.453 650.004 617.213 650.004ZM682.247 645.805C682.247 648.764 682.447 651.003 682.847 652.523C683.247 653.962 683.966 654.922 685.006 655.401C686.046 655.881 687.525 656.161 689.444 656.241V659H658.857V656.241C660.216 656.161 661.296 655.881 662.096 655.401C662.895 654.922 663.455 653.962 663.775 652.523C664.095 651.003 664.255 648.764 664.255 645.805V581.152C664.255 579.953 664.015 579.153 663.535 578.753C663.135 578.354 662.495 578.154 661.616 578.154C660.976 578.154 660.256 578.234 659.457 578.394C658.737 578.554 657.937 578.793 657.058 579.113L655.858 576.354L682.007 564.239L682.727 564.959C682.647 566.159 682.527 568.038 682.367 570.597C682.287 573.076 682.247 576.234 682.247 580.073V645.805ZM709.767 660.799C705.369 660.799 702.09 659.48 699.931 656.841C697.852 654.202 696.813 651.163 696.813 647.725C696.813 642.447 699.212 638.169 704.01 634.89C708.888 631.611 716.405 628.613 726.56 625.894V619.536C726.56 615.778 725.761 613.099 724.161 611.5C722.642 609.82 720.483 608.981 717.684 608.981C713.846 608.981 710.647 610.42 708.088 613.299C705.609 616.178 703.89 620.056 702.93 624.934H700.171V607.661C702.89 606.302 706.409 605.022 710.727 603.823C715.125 602.623 719.883 602.024 725.001 602.024C738.835 602.024 745.752 607.382 745.752 618.097V644.246C745.752 646.085 745.992 647.525 746.472 648.564C746.952 649.524 747.911 650.004 749.351 650.004C750.15 650.004 751.03 649.844 751.99 649.524C753.029 649.124 754.109 648.404 755.228 647.365L757.148 649.284C755.388 652.963 753.069 655.721 750.19 657.561C747.312 659.32 744.033 660.2 740.355 660.2C736.436 660.2 733.397 659.44 731.238 657.92C729.159 656.321 727.68 654.042 726.8 651.083H726.56C724.721 654.282 722.282 656.721 719.243 658.4C716.205 660 713.046 660.799 709.767 660.799ZM719.123 650.004C720.723 650.004 722.122 649.644 723.322 648.924C724.601 648.125 725.681 647.245 726.56 646.285V630.692C722.882 631.731 720.083 633.091 718.164 634.77C716.325 636.449 715.085 638.129 714.445 639.808C713.886 641.487 713.606 642.887 713.606 644.006C713.606 645.686 714.085 647.125 715.045 648.324C716.005 649.444 717.364 650.004 719.123 650.004Z" fill="#A17A35"/>
<path d="M377.217 280.966L456.612 439.095H478.225C483.959 425.863 489.179 413.88 493.884 403.147C498.736 392.414 503.147 382.563 507.116 373.594C511.233 364.626 515.129 356.318 518.805 348.673C522.481 341.027 526.083 333.75 529.612 326.839C533.14 319.782 536.743 312.945 540.418 306.329C544.241 299.565 548.358 292.582 552.769 285.377C553.357 293.464 554.092 302.947 554.974 313.827C555.856 324.707 556.812 336.323 557.841 348.673C559.017 360.876 560.267 373.447 561.59 386.386C562.914 399.177 564.237 411.675 565.56 423.878C567.03 435.934 568.501 447.255 569.971 457.842C571.441 468.428 572.838 477.47 574.161 484.968C574.749 488.35 575.558 492.173 576.587 496.437C577.763 500.553 579.895 504.523 582.983 508.346C586.218 512.022 590.775 515.183 596.657 517.829C602.538 520.329 610.551 521.578 620.696 521.578C627.9 521.578 634.59 520.843 640.765 519.373C647.087 517.903 652.821 516.065 657.967 513.859C663.26 511.654 667.892 509.375 671.862 507.023C675.978 504.523 679.36 502.318 682.007 500.406L678.478 492.246C675.684 493.716 672.523 495.187 668.995 496.657C665.466 497.98 661.717 498.642 657.747 498.642C653.924 498.642 651.278 497.392 649.807 494.893C648.337 492.246 647.161 488.791 646.279 484.527C645.691 481.734 644.882 476.588 643.853 469.089C642.824 461.444 641.721 452.181 640.545 441.301C639.368 430.274 638.045 417.997 636.575 404.47C635.252 390.944 633.855 376.829 632.385 362.126C630.914 347.423 629.444 332.5 627.974 317.356C626.65 302.212 625.327 287.583 624.004 273.468C622.828 259.206 621.725 245.9 620.696 233.55C619.667 221.052 618.858 210.172 618.27 200.909C618.27 200.909 615.953 165.55 615.953 149.55C615.953 133.55 604.67 150.332 595.554 162.976C586.438 175.621 576.587 190.911 566.001 208.849C555.415 226.786 543.873 247.591 531.376 271.263C519.026 294.787 505.278 321.473 490.135 351.319L431.911 233.109C428.971 227.08 425.736 221.346 422.207 215.906C418.679 210.466 414.194 205.761 408.754 201.792C403.314 197.675 396.551 194.44 388.464 192.088C380.378 189.588 370.306 188.338 358.25 188.338C343.253 188.338 328.477 190.25 313.921 194.073C299.512 197.748 286.574 203.409 275.105 211.054C263.637 218.7 254.374 228.257 247.317 239.725C240.26 251.046 236.731 264.352 236.731 279.643C236.731 286.112 237.76 292.214 239.819 297.948C241.877 303.682 244.891 308.681 248.861 312.945C252.831 317.209 257.609 320.591 263.196 323.09C268.93 325.442 275.326 326.619 282.383 326.619C286.941 326.619 291.499 325.957 296.057 324.634C300.762 323.164 304.879 321.032 308.407 318.238C312.083 315.298 315.024 311.695 317.229 307.432C319.582 303.168 320.758 298.095 320.758 292.214C320.758 288.097 320.17 284.642 318.993 281.849C317.817 278.908 316.347 276.556 314.583 274.791C312.965 273.027 311.127 271.777 309.069 271.042C307.158 270.16 305.32 269.719 303.555 269.719C301.35 269.719 299.365 270.38 297.601 271.704C295.983 272.88 294.219 274.203 292.308 275.673C290.396 276.997 288.264 278.32 285.912 279.643C283.56 280.819 280.545 281.407 276.87 281.407C276.135 281.407 274.885 281.26 273.121 280.966C271.503 280.525 269.812 279.643 268.048 278.32C266.431 276.85 264.96 274.718 263.637 271.924C262.461 269.131 261.873 265.381 261.873 260.676C261.873 255.236 262.976 250.164 265.181 245.459C267.533 240.754 270.474 236.49 274.003 232.668C277.678 228.698 281.795 225.243 286.353 222.302C291.058 219.214 295.689 216.641 300.247 214.583C304.952 212.525 309.437 210.981 313.7 209.952C318.111 208.775 321.787 208.187 324.728 208.187C328.256 208.187 331.27 208.481 333.77 209.069C336.269 209.658 338.548 210.834 340.607 212.598C342.665 214.215 344.65 216.641 346.561 219.876C348.473 222.964 350.678 227.08 353.178 232.226C353.031 237.372 352.81 243.474 352.516 250.531C352.369 257.589 352.075 265.528 351.634 274.35C351.34 283.172 350.899 292.729 350.31 303.021C349.722 313.166 349.061 323.899 348.326 335.22C347.737 343.012 347.149 350.437 346.561 357.495C346.12 364.405 345.606 371.242 345.017 378.005C344.429 384.768 343.841 391.605 343.253 398.516C342.665 405.279 342.077 412.336 341.489 419.688C340.166 432.92 338.181 444.756 335.534 455.195C332.888 465.634 329.065 474.529 324.066 481.881C319.067 489.232 312.671 494.893 304.879 498.862C297.233 502.685 287.75 504.597 276.429 504.597C270.695 504.597 265.916 503.788 262.093 502.171C258.271 500.553 254.963 498.568 252.169 496.216C249.522 493.716 247.317 491.07 245.553 488.276C243.935 485.483 242.465 482.91 241.142 480.557C239.819 478.058 238.495 476 237.172 474.382C235.996 472.765 234.599 471.956 232.982 471.956C230.335 471.956 227.983 472.691 225.924 474.162C223.719 475.485 221.881 477.323 220.411 479.675C218.941 481.881 217.838 484.38 217.103 487.174C216.368 489.82 216 492.467 216 495.113C216 498.642 217.617 501.95 220.852 505.038C223.94 507.978 228.13 510.551 233.423 512.757C238.716 514.962 244.818 516.726 251.728 518.05C258.638 519.226 265.843 519.814 273.341 519.814C290.396 519.814 304.585 517.388 315.906 512.536C327.374 507.684 336.637 500.994 343.694 492.467C350.899 483.792 356.339 473.574 360.014 461.811C363.837 450.049 366.631 437.331 368.395 423.657C370.159 409.837 371.336 395.354 371.924 380.211C372.659 364.92 373.467 349.555 374.35 334.117L377.217 280.966Z" fill="#A17A35"/>
</svg>
