<svg xmlns="http://www.w3.org/2000/svg" width="24" height="23" viewBox="0 0 24 23">
  <path id="Icon_ionic-md-arrow-round-back" data-name="Icon ionic-md-arrow-round-back" d="M27.545,15.613H12.95l5.661-5.5a2.319,2.319,0,0,0,0-3.132,2,2,0,0,0-2.946,0L6.239,16.264a2.128,2.128,0,0,0-.614,1.552v.028A2.128,2.128,0,0,0,6.239,19.4l9.419,9.285a2,2,0,0,0,2.946,0,2.319,2.319,0,0,0,0-3.132l-5.661-5.5h14.6a2.154,2.154,0,0,0,2.087-2.217A2.131,2.131,0,0,0,27.545,15.613Z" transform="translate(-5.625 -6.33)" fill="#b1622a"/>
</svg>
