<svg xmlns="http://www.w3.org/2000/svg" width="28.705" height="28.705" viewBox="0 0 28.705 28.705">
  <g id="Group_54" data-name="Group 54" transform="translate(0)">
    <path id="Star_6" data-name="Star 6" d="M13.878,1.41a.5.5,0,0,1,.948,0l3,8.934a.5.5,0,0,0,.461.341l9.057.243a.5.5,0,0,1,.3.889l-7.231,5.827a.5.5,0,0,0-.167.525l2.584,9.152a.5.5,0,0,1-.774.541L14.646,22.5a.5.5,0,0,0-.586,0L6.647,27.862a.5.5,0,0,1-.774-.541l2.584-9.152a.5.5,0,0,0-.167-.525L1.058,11.817a.5.5,0,0,1,.3-.889l9.057-.243a.5.5,0,0,0,.461-.341Z" fill="#f0f0f2"/>
    <path id="Star_7" data-name="Star 7" d="M14.352,0l-3.9,9.939L0,10.663,8.037,17.53,5.482,27.917l8.87-5.695Z" transform="translate(0)" fill="#e6b325"/>
  </g>
</svg>
