<svg xmlns="http://www.w3.org/2000/svg" width="30.506" height="30.632" viewBox="0 0 30.506 30.632">
  <g id="Group_84" data-name="Group 84" transform="translate(-1436.647 -887.118)">
    <path id="Vector" d="M8.439,29H20.562a5.928,5.928,0,0,0,6.061-5.784V16.142A3.785,3.785,0,0,1,27.812,13.4a3.76,3.76,0,0,0-.483-5.869L18.065,1.106a6.3,6.3,0,0,0-7.131,0L1.671,7.535A3.76,3.76,0,0,0,1.187,13.4a3.785,3.785,0,0,1,1.189,2.738v7.071A5.928,5.928,0,0,0,8.439,29Z" transform="translate(1437.4 888)" fill="none" stroke="#838282" stroke-width="1.5"/>
    <path id="Vector-2" data-name="Vector" d="M6,14c6.2,2.632,9.655,2.583,15.646,0" transform="translate(1438.077 893.926)" fill="none" stroke="#838282" stroke-width="1.5"/>
  </g>
</svg>
