<svg xmlns="http://www.w3.org/2000/svg" width="31" height="26.237" viewBox="0 0 31 26.237">
  <g id="Icon_feather-eye-off" data-name="Icon feather-eye-off" transform="translate(0 -2.743)">
    <path id="Path_15" data-name="Path 15" d="M23.06,23.26A13.047,13.047,0,0,1,15.5,25.81c-8.909,0-14-9.905-14-9.905A23.024,23.024,0,0,1,7.94,8.551M12.827,6.3A11.917,11.917,0,0,1,15.5,6c8.909,0,14,9.905,14,9.905a22.883,22.883,0,0,1-2.749,3.95M18.2,18.53A3.887,3.887,0,0,1,14.46,19.6a3.768,3.768,0,0,1-2.755-2.68,3.65,3.65,0,0,1,1.1-3.637" transform="translate(0 0)" fill="none" stroke="#bf9742" stroke-linecap="round" stroke-linejoin="round" stroke-width="3"/>
    <path id="Path_16" data-name="Path 16" d="M6.68,4.862l19.83,22" transform="translate(-0.459)" fill="none" stroke="#bf9742" stroke-linecap="round" stroke-linejoin="round" stroke-width="3"/>
  </g>
</svg>
