<svg xmlns="http://www.w3.org/2000/svg" width="25" height="30" viewBox="0 0 25 30">
  <path id="Icon_metro-switch" data-name="Icon metro-switch" d="M20.57,6.223v3.983a8.92,8.92,0,0,1,2.742,1.968,9.71,9.71,0,0,1,0,13.258,8.631,8.631,0,0,1-12.627,0,9.71,9.71,0,0,1,0-13.258,8.919,8.919,0,0,1,2.742-1.968V6.223A13.062,13.062,0,0,0,4.5,18.8c0,7.249,5.6,13.125,12.5,13.125S29.5,26.052,29.5,18.8A13.062,13.062,0,0,0,20.57,6.223ZM15.213,1.928h3.571v15H15.213Z" transform="translate(-4.499 -1.928)" fill="#838282"/>
</svg>
