<svg xmlns="http://www.w3.org/2000/svg" width="25.699" height="30.7" viewBox="0 0 25.699 30.7">
  <g id="Group_85" data-name="Group 85" transform="translate(-1524.65 -887.051)">
    <path id="_290141_bag_case_handbag_purse_shopping_icon" data-name="290141_bag_case_handbag_purse_shopping_icon" d="M23.826,32H3.174A2.5,2.5,0,0,1,1,29.271L3.174,12.909a3.229,3.229,0,0,1,.85-2.09,2.016,2.016,0,0,1,1.8-.637H7.266C8.086,5.448,10.561,2,13.5,2s5.415,3.448,6.235,8.181h1.441a2.017,2.017,0,0,1,1.8.637,3.23,3.23,0,0,1,.85,2.09L26,29.271A2.5,2.5,0,0,1,23.826,32ZM13.5,3.364c-2.366,0-4.374,2.849-5.119,6.817H18.619C17.872,6.213,15.866,3.364,13.5,3.364Zm9.238,9.544a1.629,1.629,0,0,0-.414-1.023,1.025,1.025,0,0,0-.874-.341H19.915a20.421,20.421,0,0,1,.108,2.045.558.558,0,1,1-1.088,0,18.977,18.977,0,0,0-.109-2.045H8.171a19.116,19.116,0,0,0-.109,2.045.625.625,0,0,1-.544.682.625.625,0,0,1-.544-.682c0-.684.038-1.367.108-2.045H5.548a1.026,1.026,0,0,0-.873.341,1.629,1.629,0,0,0-.414,1.023L2.088,29.271a1.25,1.25,0,0,0,1.088,1.364H23.826a1.25,1.25,0,0,0,1.088-1.364Z" transform="translate(1524 885.401)" fill="#828a89" stroke="#828a89" stroke-width="0.7" fill-rule="evenodd"/>
    <path id="Vector_1781" data-name="Vector 1781" d="M0,0C2.262,1.287,3.5,1.273,5.76,0" transform="translate(1534.621 906.359)" fill="none" stroke="#828a89" stroke-linecap="round" stroke-linejoin="round" stroke-width="1.5"/>
  </g>
</svg>
